<?xml version="1.0" encoding="utf-8"?>
<!-- Generator: Adobe Illustrator 23.0.2, SVG Export Plug-In . SVG Version: 6.00 Build 0)  -->
<svg version="1.1" id="Layer_1" xmlns="http://www.w3.org/2000/svg" xmlns:xlink="http://www.w3.org/1999/xlink" x="0px" y="0px"
	 viewBox="0 0 799.6 400.1" style="enable-background:new 0 0 799.6 400.1;" xml:space="preserve">
<g>
	<path d="M104.8,5.3l100,282.4L304.3,5.3h105.4v389.4h-80.5V288.3l8-183.7L232.1,394.7H177L72.2,104.8l8,183.5v106.4H0V5.3H104.8z"
		/>
	<path d="M799.6,208.9c0,38.3-6.8,71.9-20.3,100.8c-13.5,28.9-32.9,51.2-58.2,66.9c-25.2,15.7-54.2,23.5-86.8,23.5
		c-32.3,0-61.1-7.8-86.4-23.3c-25.3-15.5-44.9-37.7-58.8-66.5c-13.9-28.8-21-61.9-21.1-99.4v-19.3c0-38.3,6.9-72.1,20.7-101.2
		c13.8-29.2,33.3-51.5,58.6-67.1C572.5,7.8,601.4,0,633.8,0c32.4,0,61.3,7.8,86.5,23.4c25.2,15.6,44.8,38,58.6,67.1
		c13.8,29.2,20.7,62.8,20.7,101V208.9z M718.3,191.2c0-40.8-7.3-71.8-21.9-93.1c-14.6-21.2-35.5-31.8-62.6-31.8
		c-26.9,0-47.7,10.5-62.3,31.4c-14.6,21-22,51.7-22.2,92.1v19c0,39.8,7.3,70.6,21.9,92.5c14.6,21.9,35.7,32.9,63.1,32.9
		c26.9,0,47.6-10.6,62-31.7c14.4-21.1,21.8-51.9,21.9-92.4V191.2z"/>
</g>
</svg>
